<svg width="256" height="312" viewBox="0 0 256 312" fill="none" xmlns="http://www.w3.org/2000/svg">
<path d="M52.864 297.5L59.704 272.588H65.752L72.592 297.5H69.856L68.056 291.092H57.4L55.6 297.5H52.864ZM61.792 274.964L58.012 288.608H67.444L63.664 274.964H61.792ZM84.6773 297.5V279.5H87.3413V281.948C89.4293 280.508 91.6253 279.56 93.9293 279.104V281.84C92.9213 282.032 91.8653 282.332 90.7613 282.74C89.6813 283.148 88.8533 283.508 88.2773 283.82L87.3773 284.288V297.5H84.6773ZM115.087 281.84H109.363V290.444C109.363 292.508 109.507 293.864 109.795 294.512C110.107 295.16 110.827 295.484 111.955 295.484L115.159 295.268L115.339 297.5C113.731 297.764 112.507 297.896 111.667 297.896C109.795 297.896 108.499 297.44 107.779 296.528C107.059 295.616 106.699 293.876 106.699 291.308V281.84H104.143V279.5H106.699V273.992H109.363V279.5H115.087V281.84ZM126.232 288.464C126.232 285.176 126.82 282.8 127.996 281.336C129.172 279.872 131.152 279.14 133.936 279.14C136.744 279.14 138.724 279.872 139.876 281.336C141.052 282.8 141.64 285.176 141.64 288.464C141.64 291.752 141.088 294.14 139.984 295.628C138.88 297.116 136.864 297.86 133.936 297.86C131.008 297.86 128.992 297.116 127.888 295.628C126.784 294.14 126.232 291.752 126.232 288.464ZM129.004 288.428C129.004 291.044 129.316 292.88 129.94 293.936C130.588 294.992 131.92 295.52 133.936 295.52C135.976 295.52 137.308 295.004 137.932 293.972C138.556 292.916 138.868 291.068 138.868 288.428C138.868 285.788 138.52 283.976 137.824 282.992C137.128 281.984 135.832 281.48 133.936 281.48C132.064 281.48 130.768 281.984 130.048 282.992C129.352 283.976 129.004 285.788 129.004 288.428ZM154.683 297.5V279.5H157.347V281.948C159.435 280.508 161.631 279.56 163.935 279.104V281.84C162.927 282.032 161.871 282.332 160.767 282.74C159.687 283.148 158.859 283.508 158.283 283.82L157.383 284.288V297.5H154.683ZM175.769 297.5V279.5H178.469V297.5H175.769ZM175.769 275.432V272.3H178.469V275.432H175.769ZM204.992 284.936V294.152C205.064 295.04 205.76 295.568 207.08 295.736L206.972 297.86C205.076 297.86 203.648 297.38 202.688 296.42C200.528 297.38 198.368 297.86 196.208 297.86C194.552 297.86 193.292 297.392 192.428 296.456C191.564 295.52 191.132 294.176 191.132 292.424C191.132 290.672 191.576 289.388 192.464 288.572C193.352 287.732 194.744 287.216 196.64 287.024L202.292 286.484V284.936C202.292 283.712 202.028 282.836 201.5 282.308C200.972 281.78 200.252 281.516 199.34 281.516C197.42 281.516 195.428 281.636 193.364 281.876L192.248 281.984L192.14 279.932C194.78 279.404 197.12 279.14 199.16 279.14C201.2 279.14 202.676 279.608 203.588 280.544C204.524 281.48 204.992 282.944 204.992 284.936ZM193.904 292.28C193.904 294.488 194.816 295.592 196.64 295.592C198.272 295.592 199.88 295.316 201.464 294.764L202.292 294.476V288.536L196.964 289.04C195.884 289.136 195.104 289.448 194.624 289.976C194.144 290.504 193.904 291.272 193.904 292.28Z" fill="#D9E0EE"/>
<rect x="28" y="286.5" width="200" height="1" fill="#161320"/>
<path fill-rule="evenodd" clip-rule="evenodd" d="M133 239.75C131.8 240.175 130.15 239.95 129.25 239.75C128.9 239.45 128.6 239.6 128.5 238C127.1 236.05 127.7 233.55 129 231.5C123.8 217.2 125.8 214.1 126 213C121.55 209.7 124.5 199.1 125.25 196.25C126 193.4 126.15 185.2 126 183.5C126.55 182.05 126.65 174.15 126.25 172.5C125.85 170.85 125.5 167.15 124.75 164.75C123.6 166.6 123.95 165.25 123 170.25C123.3 175.4 123.05 176.55 123 179.75C121.65 182 122.3 182.35 122.25 183.25C122.2 184.15 121.85 184.4 121 185.25C121.85 188.9 120.5 190.85 120.25 191.5C120 192.15 119.4 196.8 120.75 199.5C122.1 202.2 121.8 208.55 120.5 211.75C119.2 214.95 120.45 217.05 120.5 218.75C120 219.6 119.5 225.2 120.5 226.75C121.5 228.3 120.75 230.25 120.75 230.25C120.75 230.25 124.05 234 126 236C128.2 237 128 238.75 128 238.75C128 238.75 126.875 240.2 125.25 239.75C123.625 239.3 123.875 239.15 123.5 239.25C123.025 239.375 121.75 239.5 121.75 239.5C121.75 239.5 119.75 239.875 116.75 239.25C114 239.175 113.425 239 111.5 237.5C109.9 235.125 112.025 233.4 112 232.75C111.975 232.1 111.5 231.85 111.25 230.75C111 229.625 112.075 226.05 112 225.75C111.925 225.425 111.5 224 112 222.75C111.05 221.375 110.75 220.55 109.75 218.25C109.875 216.25 109.125 213.125 108.75 212.25C105.875 207.55 105.875 205.175 105.75 199.75C105.625 194.3 108.25 188.8 108.5 188.5C108.75 188.175 108.05 183.5 109 182.5C108.875 180.875 108.5 180.55 110.75 180.5C109 179.375 109.25 179.05 108.25 177.25C108.125 171.3 107.25 167.5 107.25 167.5C107.25 167.5 100.925 172.825 99.75 175.75C98.55 178.7 94.5 181.5 94.5 181.5C94.5 181.5 89.625 187.25 89 192.25C88.375 197.25 82.55 200.375 82.5 201.5C82.425 202.625 77.375 208.625 76.5 210.25C77 212 76.25 214.5 76.25 214.5C73 216.25 73.25 221.25 73.25 222.5C73.25 223.75 70.75 225 70.75 225C70.75 225 63.25 221.25 60.5 219C57.75 216.75 61.5 215.75 61.5 215.75L63.5 215.25C63.5 215.25 69.65 211.95 69.25 211.25C68.85 210.55 68.95 209.65 70 208.5C71.05 207.35 71.8 207.45 72.5 202.75C73.2 198.05 73.1 195.15 74.25 189.25C75.2 180.3 84.9 173.6 86.75 171.75C87.65 169.25 89.3 166.8 91 165.25C92.7 163.7 92.8 161.55 94.75 155.75C97.975 146.175 108 133.85 108.75 132.5C108.75 124.3 110.475 124.625 111.25 122.75C108.175 119.475 112.05 112.85 113.25 109.5C110.3 105.4 109.3 102.45 109 99C108.7 95.55 107.75 94.7 106.25 93C104.15 86.65 103.25 87 101.25 86.75C87.35 86.8 87.5 85.25 87.5 85.25C87.5 85.25 86.85 86.25 83 85.75C79.15 85.25 77.25 85.15 76.25 85.5C75.05 85.4 74.8 86.05 74 86.5C73.2 86.1 72.25 85.5 71.5 86C70.75 86.5 65.75 86.35 64.25 86.25C62.75 86.15 60.5 85.75 57.25 84.25C54 82.75 52.8 83.05 51 82.5C49.2 82.7 49.6 83.2 48.5 83.5C46.4 84 41.8 83.85 41 82.75C40.2 81.65 37.95 82.1 35 82C32.05 81.9 32.45 81.4 32.5 80.25C29.4 79.7 32.65 77.85 31.75 77.75C30.525 75.9 31.125 74.975 34 74.5C31.4 73.75 33 72.5 33 72.5C33 72.5 35.7 72 38.25 72.25C40.8 71.45 42.15 72.75 44 74C48.8 74.35 49.55 75.6 51.75 76.5C59.5 76.45 63.55 75.9 69.5 75.75C75.4 74.6 75.75 75.8 77.5 77C80.05 76.75 79.4 74.95 83.25 75.25C87.1 75.55 87.05 74 85.25 73.75C80 73 77.45 71 76.75 70.5C76.05 70 74.6 69.65 72.5 70C71.35 68.2 66.9 67.2 63 65.5C59.1 63.8 57.6 61.45 56.25 60.25C53.35 58.95 50.45 56.7 49.75 56.5C49.05 56.3 46.8 57.4 45 55.25C43.2 53.1 42.5 52.95 41 52C39.5 51.05 37.425 50.025 37.5 49.5C37.675 48.325 37.8 48.7 37.75 48C37.675 47.125 36.3 46.325 37 45.5C38.4 43.85 37.75 44.2 38.25 43.5C38.725 42.825 46.5 43.25 46.5 43.25C46.5 43.25 50.2 45.45 53.25 49.25C55.55 54.5 55.9 52.1 68.25 55.5C79.7 58.85 81.65 61 82.25 63C92.9 62.15 98.3 67.2 99.75 67.75C101.05 67.2 101.8 66.85 105.75 67.25C109.7 67.65 114.15 70.25 117 70.5C116.45 69.85 116.5 69.8 114.75 68.5C114.8 65.85 113.9 65.25 112.75 64.5C110.15 63.8 111.2 61.85 111.5 60.25C110.4 58.3 110.75 58.35 110.75 57C112.4 56.35 113.2 55.5 113.5 55C112.1 53.25 113.25 52.75 114.25 51.75C114.3 48.9 115.95 49.45 116.75 49.75C117.35 49.5 117.05 48.4 116.75 47.25C117.5 45.45 123.25 42.75 123.25 42.75C123.25 42.75 126.4 42.75 131.75 42.75C138.65 42.05 138.7 44.9 140.25 47.5C144.1 47.35 143.45 49.2 143.5 50.25C145 50.6 144.8 52 144.75 53C143.95 53.75 144.35 53.8 144.5 54.5C147.2 56.2 146.2 58.9 145.75 60.75C147.9 62.05 147.6 62.7 147 63.5C145.15 64.1 145 65.1 145.75 65.25C146.5 65.4 146.15 66.35 145 67.25C143.85 68.15 145.05 68.3 144.25 69.5C142.3 71.9 140 71.25 140 71.25C140 71.25 139.6 71.15 140.75 72.5C141.9 73.85 142.95 73.15 143.75 72.75C145.05 71.4 146.5 70.75 149.5 71C152.1 68.75 155.85 68.2 159.75 68.5C166.6 64.35 178.25 63.65 178.75 63.25C179.25 62.85 182.4 58.85 187 58.5C191.6 58.15 201.25 53.8 202.25 53.25C202.25 52.85 203.8 49.45 204.75 49.25C205.7 49.05 208.8 46.65 210.5 45.25C212.9 44.5 212.15 44.4 213.5 44C214.975 43.725 216.425 44.1 217.5 44C218.45 43.9 219 44.5 219 44.5C219.25 44.525 220.675 45.375 220.75 46.75C220.775 47.15 221.4 47.275 221.5 47.75C221.6 48.25 220.825 49.425 221 49.75C221.05 50.025 219.8 51.275 219.65 51.8C216.55 55.675 213.8 56.35 211.75 58.25C209.7 60.15 207.75 60.25 204.5 60.75C193.7 68.7 190.8 69.45 189.25 70.75C187.7 72.05 187.25 72.1 182.75 72.25C177.8 75 174.5 75.6 173.75 75.75C173.1 76.2 172.45 76.75 173.75 77.25C176.9 77.4 178.65 78.25 181.25 79C182.9 78 183.05 78.25 185.75 77.75C188.45 77.25 195.95 77.65 198 78.25C200.05 78.85 208.5 78.7 209.75 78.5C209.95 78.25 211.85 77.05 212.75 76.75C212.95 77.05 216.95 76.65 217.5 76C218.05 75.35 219.7 75.15 220.75 75C221.1 75.4 221.95 76.15 223 76.25C224.05 76.35 224.55 76.65 225.25 77.5C227.975 80.8 226.9 80.2 226.75 81C226.6 81.8 225.8 81.85 224.75 82.25C224.95 83.65 224.75 84.25 224.75 84.25C224.75 84.25 223.05 84.7 220.5 84.75C218.1 85.25 215.5 85 215.5 85C215.5 85 215.05 85.7 213.75 85.75C211.1 85.85 210.25 85.25 208.75 85C206.65 85.45 204.85 85.75 202 85.75C197.475 85.75 197.35 87.05 193.5 87.75C190.05 88.35 180.75 86.75 180.75 86.75C180.75 86.75 174.25 87.55 170.75 87.25C167.8 85.75 167 86.5 167 86.5C167 86.5 164.55 88.45 162 87.5C159.45 86.55 155.6 86.55 154 88.25C152.4 89.95 150.3 92 148.25 93.75C148.25 96.35 147.5 98.75 147.5 98.75C147.5 98.75 146.1 101.15 146 104.5C145.9 107.85 145.05 108.85 144.25 110.5C145.65 112.35 145.25 114 145 116.25C146.4 118.25 146.15 120.75 145.75 123C145.35 125.25 146.55 127.7 147.25 129C147.95 130.3 147.95 133 148.25 136C151.15 139.45 150.5 139 154.25 144.75C154.9 151.15 155.15 149.1 156.5 154.25C159.7 158.8 158.7 162.9 159.25 165.75C159.8 168.6 162.55 171.55 162.75 172.75C162.95 173.95 162.2 177.85 164.75 181C167.3 184.15 173.65 189.45 174.75 201.25C175.85 213.05 178.85 214.6 180.5 217.25C183.4 217.2 185.3 217.35 186.75 217.5C188.2 217.65 190.65 217.9 191.5 217C194.4 216.4 196.6 218 195.25 219.25C193.9 220.5 191.7 221.2 190.5 222C189.35 222.2 186.75 224.35 185.5 225C184.25 225.65 183.55 225.65 182.25 226C179.1 227.25 179.4 227.55 177.25 228.75C173.2 229.4 173.35 227.05 172.75 225.75C173.25 221.75 172.9 220.35 171.5 218C164.7 210.35 165.1 209.55 162.5 205.25C156.05 201.6 153.75 192.75 153.75 192.75C153.75 192.75 151.65 186.1 151 182.5C148.7 179.7 148.85 179.65 147 176C145.65 168.35 143.05 167.5 143 167.75C142.95 168 142.5 174.85 141.5 175.5C140.5 176.15 139.4 180.8 140 184C140.6 187.2 138.5 192 138.5 192C138.5 192 138.35 195.6 138 196.5C138.05 197.4 139.25 211.15 137.25 216.75C135.25 222.35 137.25 229.75 137.25 229.75C137.25 229.75 139.45 229.9 140.25 230.75C141.05 231.6 147.75 235.5 148.75 235.25C149.75 235 152.2 236.25 153 236.5C153.8 236.75 155.75 236.25 155.75 236.25C155.75 236.25 156.95 235.925 156.5 237.75C156 239.8 155.3 239.5 154 240.25C153.025 239.925 151.875 239.65 151 240C149.95 240.425 148 240.4 146.5 240.25C145.475 240.325 144.2 240.4 142.5 240.25C140.725 239.4 136.05 239.425 133 239.75ZM216.75 44.25C217.075 44.25 216.75 44.25 216.75 44.25V44.25Z" fill="#D9E0EE"/>
</svg>
