<svg width="55" height="59" viewBox="0 0 55 59" fill="none" xmlns="http://www.w3.org/2000/svg">
<path d="M46.9145 23.8436C53.1422 21.5769 56.4827 14.4247 51.9697 9.57126C50.9531 8.478 49.8526 7.45811 48.6754 6.52176C44.3455 3.07759 39.1475 0.897881 33.6561 0.223616C28.1647 -0.450648 22.5937 0.406799 17.5592 2.70116C12.5247 4.99552 8.22271 8.63741 5.12888 13.2242C2.03505 17.811 0.269887 23.164 0.0285538 28.6914C-0.21278 34.2188 1.07911 39.7053 3.7614 44.5443C6.44369 49.3833 10.4119 53.3862 15.2273 56.1107C16.5364 56.8513 17.8943 57.4897 19.2888 58.0227C25.4794 60.3889 30.8595 54.6124 30.6282 47.989L30.3043 38.7132C30.1228 33.5177 33.3075 28.7962 38.1927 27.0181L46.9145 23.8436Z" fill="#89DCEB"/>
</svg>
