<svg width="16" height="16" viewBox="0 0 16 16" fill="none" xmlns="http://www.w3.org/2000/svg">
<path d="M13.76 7.51761C13.8345 7.5735 13.895 7.64597 13.9367 7.72928C13.9783 7.8126 14 7.90446 14 7.99761C14 8.09076 13.9783 8.18263 13.9367 8.26594C13.895 8.34925 13.8345 8.42172 13.76 8.47761L6.55881 13.8764C6.46967 13.9433 6.36367 13.984 6.2527 13.994C6.14172 14.004 6.03015 13.9829 5.93048 13.9331C5.83082 13.8832 5.747 13.8066 5.68842 13.7119C5.62984 13.6171 5.59881 13.5078 5.59881 13.3964V2.60361C5.59881 2.49218 5.62984 2.38296 5.68842 2.28817C5.747 2.19339 5.83082 2.11679 5.93048 2.06696C6.03015 2.01712 6.14172 1.99603 6.2527 2.00604C6.36367 2.01604 6.46967 2.05676 6.55881 2.12361L13.7588 7.51761H13.76ZM14.48 9.43761C15.44 8.71761 15.44 7.27761 14.48 6.55761L7.27761 1.16241C6.09081 0.274412 4.39761 1.12041 4.39761 2.60241V13.3964C4.39761 14.8796 6.09201 15.7256 7.27761 14.8364L14.48 9.43881V9.43761ZM2.00001 0.800012C2.00001 0.640882 1.9368 0.48827 1.82428 0.375748C1.71175 0.263226 1.55914 0.200012 1.40001 0.200012C1.24088 0.200012 1.08827 0.263226 0.975747 0.375748C0.863225 0.48827 0.800012 0.640882 0.800012 0.800012V15.2C0.800012 15.3591 0.863225 15.5118 0.975747 15.6243C1.08827 15.7368 1.24088 15.8 1.40001 15.8C1.55914 15.8 1.71175 15.7368 1.82428 15.6243C1.9368 15.5118 2.00001 15.3591 2.00001 15.2V0.800012Z" fill="#B5E8E0"/>
</svg>
